<svg xmlns="http://www.w3.org/2000/svg" width="21.96" height="21.96" viewBox="0 0 21.96 21.96"><path d="M10.98 1.98c2.93 0 3.28.01 4.44.06 1.07.05 1.65.23 2.04.38.51.2.88.44 1.26.82.38.38.62.75.82 1.26.15.39.33.97.38 2.04.05 1.16.06 1.51.06 4.44 0 2.93-.01 3.28-.06 4.44-.05 1.07-.23 1.65-.38 2.04-.2.51-.44.88-.82 1.26-.38.38-.75.62-1.26.82-.39.15-.97.33-2.04.38-1.16.05-1.51.06-4.44.06-2.93 0-3.28-.01-4.44-.06-1.07-.05-1.65-.23-2.04-.38-.51-.2-.88-.44-1.26-.82-.38-.38-.62-.75-.82-1.26-.15-.39-.33-.97-.38-2.04-.05-1.16-.06-1.51-.06-4.44 0-2.93.01-3.28.06-4.44.05-1.07.23-1.65.38-2.04.2-.51.44-.88.82-1.26.38-.38.75-.62 1.26-.82.39-.15.97-.33 2.04-.38 1.16-.05 1.51-.06 4.44-.06m0-1.98C8 0 7.63.01 6.45.07 5.29.12 4.49.31 3.79.58c-.72.28-1.34.65-1.95 1.26-.61.61-.98 1.23-1.26 1.95-.27.7-.46 1.5-.51 2.67C.01 7.63 0 8 0 10.98c0 2.98.01 3.36.07 4.53.05 1.17.24 1.97.51 2.67.28.72.66 1.33 1.27 1.95s1.22.99 1.95 1.27c.7.27 1.5.46 2.67.51 1.17.05 1.55.07 4.53.07s3.36-.01 4.53-.07c1.17-.05 1.97-.24 2.67-.51.72-.28 1.33-.66 1.95-1.27s.99-1.22 1.27-1.95c.27-.7.46-1.5.51-2.67.05-1.17.07-1.55.07-4.53 0-2.98-.01-3.36-.07-4.53-.05-1.17-.24-1.97-.51-2.67-.28-.72-.66-1.33-1.27-1.95-.61-.61-1.22-.99-1.95-1.27-.7-.27-1.5-.46-2.67-.51C14.34.01 13.96 0 10.98 0"/><path d="M10.98 5.34c-3.11 0-5.64 2.52-5.64 5.64s2.52 5.64 5.64 5.64 5.64-2.52 5.64-5.64-2.52-5.64-5.64-5.64m0 9.3c-2.02 0-3.66-1.64-3.66-3.66 0-2.02 1.64-3.66 3.66-3.66s3.66 1.64 3.66 3.66c0 2.02-1.64 3.66-3.66 3.66m7.18-9.52c0 .73-.59 1.32-1.32 1.32-.73 0-1.32-.59-1.32-1.32s.59-1.32 1.32-1.32c.73 0 1.32.59 1.32 1.32"/></svg>