<svg xmlns="http://www.w3.org/2000/svg" width="140" height="35.78" viewBox="0 0 140 35.78"><path d="M35.78 35.78H0V8.38h8.38V0h27.4v35.78zM2.26 33.51h31.25V2.26H10.64v6.12h7.25v2.26h-7.25v14.5h14.5v-14.5h-8.19V8.38H27.4V27.4H8.38V10.64H2.26v22.87z" fill="#231f20"/><path fill="#c22026" d="M51.55 24.99V14.02h-3.87v-1.86h9.56v1.86h-3.85v10.97zM63.08 12.1h-2.4v2.17h2.06v10.67h1.82V12.1z"/><path d="M73.74 23.2c.71.44 1.75.8 2.85.8 1.62 0 2.57-.86 2.57-2.1 0-1.15-.66-1.81-2.32-2.45-2.01-.71-3.25-1.75-3.25-3.49 0-1.92 1.59-3.34 3.98-3.34 1.26 0 2.17.29 2.72.6l-.44 1.3c-.4-.22-1.22-.58-2.34-.58-1.68 0-2.32 1-2.32 1.84 0 1.15.75 1.72 2.45 2.37 2.08.8 3.14 1.81 3.14 3.61 0 1.9-1.41 3.54-4.31 3.54-1.19 0-2.48-.35-3.14-.79l.41-1.31zm13.38-9.02h-3.74v-1.35h9.11v1.35h-3.77v10.96h-1.6zm10.15-1.35v7.28c0 2.76 1.22 3.93 2.87 3.93 1.83 0 2.99-1.2 2.99-3.93v-7.28h1.61v7.18c0 3.78-1.99 5.33-4.65 5.33-2.52 0-4.42-1.44-4.42-5.26v-7.25h1.6zm12.04.17c.97-.15 2.12-.26 3.38-.26 2.28 0 3.91.53 4.98 1.53 1.1 1 1.73 2.43 1.73 4.42 0 2.01-.62 3.65-1.77 4.78-1.15 1.15-3.05 1.77-5.44 1.77-1.13 0-2.08-.05-2.88-.15V13zm1.59 10.88c.4.07.98.09 1.61.09 3.4 0 5.24-1.9 5.24-5.22.02-2.9-1.62-4.75-4.98-4.75-.82 0-1.44.07-1.86.16v9.72zm12.4-11.05h1.59v12.31h-1.59zm16.7 6.03c0 4.24-2.57 6.48-5.71 6.48-3.25 0-5.53-2.52-5.53-6.24 0-3.91 2.43-6.46 5.71-6.46 3.36-.01 5.53 2.56 5.53 6.22m-9.55.2c0 2.63 1.42 4.98 3.92 4.98 2.52 0 3.94-2.32 3.94-5.11 0-2.45-1.28-5-3.93-5-2.61 0-3.93 2.42-3.93 5.13" fill="#231f20"/></svg>